<svg width="520" height="472" viewBox="0 0 520 472" fill="none" xmlns="http://www.w3.org/2000/svg">
<path fill-rule="evenodd" clip-rule="evenodd" d="M519.145 143.037V366.117C519.145 366.316 519.145 366.515 519.141 366.711L441.692 366.715C426.684 366.715 414.481 378.918 414.481 393.926V471.375C414.282 471.375 414.082 471.379 413.887 471.379L41.867 471.383C18.808 471.383 0 452.573 0 429.515L0.00390625 143.035L519.145 143.037ZM152.295 202.17V238.803C152.295 244.565 156.998 249.268 162.76 249.268H199.393C205.154 249.268 209.858 244.565 209.858 238.803V202.17C209.858 196.408 205.155 191.705 199.393 191.705H162.76C156.998 191.705 152.295 196.408 152.295 202.17V202.17ZM309.295 359.17V395.803C309.295 401.565 313.998 406.268 319.76 406.268H356.393C362.154 406.268 366.858 401.565 366.858 395.803V359.17C366.858 353.408 362.155 348.705 356.393 348.705H319.76C313.994 348.705 309.295 353.404 309.295 359.17ZM230.795 359.17V395.803C230.795 401.565 235.498 406.268 241.26 406.268H277.893C283.654 406.268 288.358 401.565 288.358 395.803V359.17C288.358 353.408 283.655 348.705 277.893 348.705H241.26C235.498 348.705 230.795 353.404 230.795 359.17ZM152.295 359.17V395.803C152.295 401.565 156.998 406.268 162.76 406.268H199.393C205.154 406.268 209.858 401.565 209.858 395.803V359.17C209.858 353.408 205.155 348.705 199.393 348.705H162.76C156.998 348.705 152.295 353.404 152.295 359.17ZM387.795 280.67V317.303C387.795 323.065 392.498 327.768 398.26 327.768H434.893C440.654 327.768 445.358 323.065 445.358 317.303V280.67C445.358 274.908 440.655 270.205 434.893 270.205H398.26C392.498 270.205 387.795 274.908 387.795 280.67ZM309.299 280.67V317.303C309.299 323.065 314.002 327.768 319.764 327.768H356.397C362.158 327.768 366.862 323.065 366.862 317.303V280.67C366.862 274.908 362.159 270.205 356.397 270.205H319.764C313.998 270.205 309.299 274.908 309.299 280.67ZM230.799 280.67V317.303C230.799 323.065 235.502 327.768 241.264 327.768H277.897C283.658 327.768 288.362 323.065 288.362 317.303V280.67C288.362 274.908 283.659 270.205 277.897 270.205H241.264C235.502 270.205 230.799 274.908 230.799 280.67ZM152.299 280.67V317.303C152.299 323.065 157.002 327.768 162.764 327.768H199.397C205.158 327.768 209.862 323.065 209.862 317.303V280.67C209.862 274.908 205.159 270.205 199.397 270.205H162.764C157.002 270.205 152.299 274.908 152.299 280.67ZM387.799 202.17V238.803C387.799 244.565 392.502 249.268 398.264 249.268H434.897C440.658 249.268 445.362 244.565 445.362 238.803V202.17C445.362 196.408 440.659 191.705 434.897 191.705H398.264C392.502 191.705 387.799 196.408 387.799 202.17V202.17ZM309.303 202.17V238.803C309.303 244.565 314.006 249.268 319.768 249.268H356.401C362.162 249.268 366.866 244.565 366.866 238.803V202.17C366.866 196.408 362.163 191.705 356.401 191.705H319.768C314.002 191.705 309.303 196.408 309.303 202.17V202.17ZM230.803 202.17V238.803C230.803 244.565 235.506 249.268 241.268 249.268H277.901C283.662 249.268 288.366 244.565 288.366 238.803V202.17C288.366 196.408 283.663 191.705 277.901 191.705H241.268C235.506 191.705 230.803 196.408 230.803 202.17V202.17ZM73.8027 280.67V317.303C73.8027 323.065 78.5057 327.768 84.2676 327.768H120.901C126.662 327.768 131.366 323.065 131.366 317.303V280.67C131.366 274.908 126.663 270.205 120.901 270.205H84.2676C78.5059 270.205 73.8027 274.908 73.8027 280.67ZM73.8027 202.17V238.803C73.8027 244.565 78.5057 249.268 84.2676 249.268H120.901C126.662 249.268 131.366 244.565 131.366 238.803V202.17C131.366 196.408 126.663 191.705 120.901 191.705H84.2676C78.5059 191.705 73.8027 196.408 73.8027 202.17V202.17ZM73.8027 359.17V395.803C73.8027 401.565 78.5057 406.268 84.2676 406.268H120.901C126.662 406.268 131.366 401.565 131.366 395.803V359.17C131.366 353.408 126.663 348.705 120.901 348.705H84.2676C78.5059 348.705 73.8027 353.404 73.8027 359.17ZM0.0136566 126.29H519.154V76.79C519.154 53.731 500.345 34.923 477.287 34.923H471.732V73.958C471.732 88.966 459.529 101.169 444.521 101.169H423.767C408.759 101.169 396.556 88.966 396.556 73.958V34.923H355.361V73.958C355.361 88.966 343.158 101.169 328.15 101.169H307.396C292.388 101.169 280.185 88.966 280.185 73.958V34.923H238.99V73.958C238.99 88.966 226.787 101.169 211.779 101.169H191.025C176.017 101.169 163.814 88.966 163.814 73.958V34.923H122.619V73.958C122.619 88.966 110.416 101.169 95.408 101.169H74.654C59.646 101.169 47.443 88.966 47.443 73.958V34.923H41.896C18.837 34.923 0.0290527 53.732 0.0290527 76.79L0.0136566 126.29ZM441.704 383.45C435.942 383.45 431.239 388.153 431.239 393.915V467.735C435.684 465.704 439.778 462.825 443.501 459.102L506.899 395.704C510.621 391.982 513.5 387.888 515.531 383.442H441.703L441.704 383.45ZM74.6437 0H95.3977C101.159 0 105.863 4.7031 105.863 10.465V73.953C105.863 79.7147 101.16 84.418 95.3977 84.418H74.6437C68.882 84.418 64.1787 79.7149 64.1787 73.953V10.465C64.1787 4.6994 68.8818 0 74.6437 0ZM423.764 0H444.518C450.279 0 454.983 4.7031 454.983 10.465V73.953C454.983 79.7147 450.28 84.418 444.518 84.418H423.764C418.002 84.418 413.299 79.7149 413.299 73.953V10.465C413.299 4.6994 418.002 0 423.764 0ZM307.384 0H328.138C333.899 0 338.603 4.7031 338.603 10.465V73.953C338.603 79.7147 333.9 84.418 328.138 84.418H307.384C301.622 84.418 296.919 79.7149 296.919 73.953V10.465C296.919 4.6994 301.622 0 307.384 0ZM191.004 0H211.758C217.519 0 222.223 4.7031 222.223 10.465V73.953C222.223 79.7147 217.52 84.418 211.758 84.418H191.004C185.242 84.418 180.539 79.7149 180.539 73.953V10.465C180.539 4.6994 185.242 0 191.004 0Z" fill="#3151CF"/>
</svg>
