<svg width="350" height="423" viewBox="0 0 350 423" fill="none" xmlns="http://www.w3.org/2000/svg">
<path d="M27.02 142.626L279.14 23.746L267.945 0L336.843 15.883L305.261 79.145L294.066 55.403L41.946 174.283C33.2038 178.408 22.778 174.658 18.653 165.92C14.5319 157.178 18.278 146.748 27.0202 142.627L27.02 142.626Z" fill="#3151CF"/>
<path d="M288.75 107.046C283.918 107.046 280 110.964 280 115.796V343.296C280 348.128 283.918 352.046 288.75 352.046H323.75C328.582 352.046 332.5 348.128 332.5 343.296V115.796C332.5 110.964 328.582 107.046 323.75 107.046H288.75Z" fill="#3151CF"/>
<path d="M26.25 212.046C21.418 212.046 17.5 215.964 17.5 220.796V343.296C17.5 348.128 21.418 352.046 26.25 352.046H61.25C66.082 352.046 70 348.128 70 343.296V220.796C70 215.964 66.082 212.046 61.25 212.046H26.25Z" fill="#3151CF"/>
<path d="M192.5 150.796C192.5 145.964 196.418 142.046 201.25 142.046H236.25C241.082 142.046 245 145.964 245 150.796V343.296C245 348.128 241.082 352.046 236.25 352.046H201.25C196.418 352.046 192.5 348.128 192.5 343.296V150.796Z" fill="#3151CF"/>
<path d="M113.75 177.046C108.918 177.046 105 180.964 105 185.796V343.296C105 348.128 108.918 352.046 113.75 352.046H148.75C153.582 352.046 157.5 348.128 157.5 343.296V185.796C157.5 180.964 153.582 177.046 148.75 177.046H113.75Z" fill="#3151CF"/>
<path d="M0 395.796C0 381.3 11.754 369.546 26.25 369.546H323.75C338.246 369.546 350 381.3 350 395.796C350 410.292 338.246 422.046 323.75 422.046H26.25C11.754 422.046 0 410.292 0 395.796Z" fill="#3151CF"/>
</svg>
