<svg width="533" height="533" viewBox="0 0 533 533" fill="none" xmlns="http://www.w3.org/2000/svg">
<path d="M501.201 0H30.801C14 0 0 14 0 30.801V501.201C0 518.002 14 532.002 30.801 532.002H501.201C518.002 532.002 532.002 518.002 532.002 501.201V30.801C532.002 14 518.002 0 501.201 0V0ZM398.721 210.56L251.441 369.04C245.839 375.2 236.32 375.2 230.722 369.04L133.281 264.32C127.679 258.718 128.242 249.761 133.84 244.16L164.078 215.601C169.679 209.999 178.637 210.562 184.238 216.16L240.8 277.199L347.2 162.959C352.801 157.357 361.759 156.798 367.36 162.4L397.598 190.959C403.762 195.998 404.32 204.959 398.719 210.557L398.721 210.56Z" fill="#3151CF"/>
</svg>
