<svg width="490" height="490" viewBox="0 0 490 490" fill="none" xmlns="http://www.w3.org/2000/svg">
<path d="M244.998 0.0019989C180.021 0.0019989 117.708 25.814 71.758 71.76C25.813 117.709 0 180.03 0 245C0 309.97 25.812 372.29 71.758 418.24C117.707 464.185 180.028 489.998 244.998 489.998C309.968 489.998 372.288 464.186 418.238 418.24C464.183 372.291 489.996 309.97 489.996 245C489.922 180.043 464.086 117.77 418.156 71.84C372.226 25.91 309.956 0.074 244.996 0L244.998 0.0019989ZM324.271 324.272C319.146 329.397 310.837 329.397 305.712 324.272L235.712 254.272C233.251 251.815 231.864 248.479 231.86 244.999V87.4986C231.86 80.2486 237.739 74.3736 244.985 74.3736C252.235 74.3736 258.11 80.2486 258.11 87.4986V239.569L324.262 305.721C329.383 310.842 329.387 319.143 324.27 324.268L324.271 324.272Z" fill="#3151CF"/>
</svg>
