<svg width="623" height="560" viewBox="0 0 623 560" fill="none" xmlns="http://www.w3.org/2000/svg">
<path d="M242.927 520.537L126.807 319.487L10.5767 118.387C1.29553 102.313 -2.02527 83.481 1.20173 65.203C4.42873 46.925 13.9947 30.367 28.2217 18.441C42.4447 6.51902 60.4167 -0.0119835 78.9757 1.65071e-05H543.316C564.25 1.65071e-05 584.324 8.31642 599.125 23.117C613.926 37.918 622.242 57.992 622.242 78.926C622.273 92.727 618.644 106.289 611.719 118.231L495.699 319.491L379.629 520.541C365.531 544.955 339.477 559.998 311.281 559.998C283.085 559.998 257.031 544.955 242.933 520.541L242.927 520.537Z" fill="#3151CF"/>
</svg>
