<svg width="498" height="485" viewBox="0 0 498 485" fill="none" xmlns="http://www.w3.org/2000/svg">
<path d="M497.78 74.044C497.788 79.4112 495.663 84.56 491.866 88.356C488.073 92.149 482.921 94.2779 477.557 94.2662H198.957C193.07 115.071 178.375 132.258 158.734 141.305C139.097 150.352 116.484 150.352 96.843 141.305C77.206 132.258 62.511 115.071 56.624 94.2662H20.222C12.9993 94.2662 6.32398 90.4107 2.70998 84.1572C-0.903325 77.8994 -0.903325 70.1883 2.70998 63.9342C6.32328 57.6764 12.999 53.8213 20.222 53.8213H56.624C62.5107 33.0163 77.206 15.8293 96.843 6.78225C116.484 -2.26075 139.097 -2.26075 158.734 6.78225C178.375 15.8292 193.07 33.0163 198.957 53.8213H477.557C482.924 53.8134 488.073 55.9385 491.866 59.7354C495.663 63.5284 497.788 68.6767 497.78 74.0443V74.044Z" fill="#3151CF"/>
<path d="M497.78 242.137C497.788 247.504 495.663 252.653 491.866 256.449C488.073 260.242 482.921 262.371 477.557 262.359H427.623C421.76 283.16 407.084 300.347 387.459 309.398C367.834 318.445 345.232 318.445 325.607 309.398C305.982 300.348 291.306 283.16 285.443 262.359H20.223C13.0003 262.359 6.32495 258.504 2.71095 252.246C-0.902349 245.993 -0.902349 238.282 2.71095 232.028C6.32425 225.77 13 221.914 20.223 221.914H285.443C291.306 201.113 305.982 183.927 325.607 174.876C345.232 165.829 367.834 165.829 387.459 174.876C407.084 183.926 421.76 201.113 427.623 221.914H477.557C482.924 221.903 488.073 224.032 491.866 227.825C495.663 231.622 497.788 236.77 497.78 242.137V242.137Z" fill="#3151CF"/>
<path d="M497.78 410.23C497.788 415.597 495.663 420.746 491.866 424.539C488.073 428.336 482.921 430.461 477.557 430.453H198.957C193.07 451.258 178.375 468.445 158.734 477.492C139.097 486.535 116.484 486.535 96.843 477.492C77.206 468.445 62.511 451.258 56.624 430.453H20.222C12.9993 430.453 6.32398 426.597 2.70998 420.34C-0.903325 414.086 -0.903325 406.375 2.70998 400.117C6.32328 393.863 12.999 390.008 20.222 390.008H56.624C62.5107 369.203 77.206 352.016 96.843 342.969C116.484 333.922 139.097 333.922 158.734 342.969C178.375 352.016 193.07 369.203 198.957 390.008H477.557C482.924 389.996 488.073 392.125 491.866 395.918C495.663 399.715 497.788 404.863 497.78 410.23V410.23Z" fill="#3151CF"/>
</svg>
