<svg width="497" height="442" viewBox="0 0 497 442" fill="none" xmlns="http://www.w3.org/2000/svg">
<path d="M442.182 31.707C417.436 11.91 386.08 0 351.92 0C311.256 0 274.592 16.859 248.31 43.863C222.021 16.859 185.365 0 144.7 0C110.528 0 79.184 11.91 54.434 31.707C21.289 58.223 0 98.949 0 144.697C0 182.674 14.754 217.138 38.688 242.947L46.4419 250.709L229.022 433.289C229.284 433.558 229.549 433.816 229.811 434.074L230.381 434.652L230.436 434.589L230.498 434.652L230.51 434.64C235.241 438.894 241.44 441.562 248.315 441.562H248.327C255.202 441.562 261.386 438.89 266.128 434.64L266.132 434.652L266.194 434.589L266.245 434.652L266.815 434.074C267.085 433.816 267.347 433.558 267.604 433.289L457.944 242.949C481.874 217.137 496.628 182.676 496.628 144.699C496.617 98.9527 475.323 58.2257 442.183 31.7087L442.182 31.707ZM157.202 59.254C157.124 59.297 157.05 59.3478 156.979 59.379C155.741 59.8985 154.405 60.1681 153.003 60.2188V60.4142C152.819 60.4142 152.643 60.379 152.456 60.379C112.249 60.379 78.1899 86.438 66.0579 122.555L65.7962 122.453C64.6087 124.871 62.6945 126.864 60.2375 127.942C60.1594 127.985 60.0852 128.032 60.0188 128.067C58.6633 128.637 57.1985 128.942 55.6477 128.942C49.3586 128.942 44.2417 123.817 44.2417 117.536C44.2417 115.883 44.6909 114.387 45.3355 113.005C60.9725 69.5945 102.069 38.4025 150.686 37.6605C151.307 37.5277 151.947 37.4301 152.611 37.4301C158.9 37.4301 164.021 42.5473 164.021 48.8481C164.013 53.4965 161.193 57.5083 157.201 59.2541L157.202 59.254Z" fill="#3151CF"/>
</svg>
