<svg width="420" height="560" viewBox="0 0 420 560" fill="none" xmlns="http://www.w3.org/2000/svg">
<path d="M205.293 559.994C199.691 557.373 194.992 553.143 191.797 547.842C139.774 474.201 87.3565 400.842 35.6165 326.982C15.9095 298.634 3.9795 265.619 1.0115 231.22C-7.7229 141.618 40.7145 55.4302 122.871 19.8802C202.613 -14.6708 277.932 -4.14283 345.362 51.1302C365.694 67.6572 382.56 88.0402 394.994 111.103C407.428 134.169 415.19 159.458 417.827 185.529C424.526 237.9 410.811 290.839 379.522 333.369C329.159 404.303 278.762 475.369 228.322 546.559C225.04 552.391 220.06 557.082 214.04 560L205.293 559.994ZM279.496 210.784C279.566 192.3 272.312 174.542 259.324 161.393C246.332 148.245 228.659 140.78 210.178 140.627C191.694 140.475 173.906 147.651 160.702 160.584C147.499 173.518 139.956 191.154 139.725 209.639C139.49 228.119 146.592 245.94 159.466 259.201C172.341 272.459 189.946 280.08 208.427 280.389C227.091 280.616 245.075 273.401 258.411 260.338C271.743 247.279 279.329 229.447 279.493 210.783L279.496 210.784Z" fill="#3151CF"/>
</svg>
