<svg width="491" height="297" viewBox="0 0 491 297" fill="none" xmlns="http://www.w3.org/2000/svg">
<path d="M306.851 90.126C306.851 124.177 279.246 151.782 245.195 151.782C211.144 151.782 183.539 124.177 183.539 90.126C183.539 56.071 211.144 28.47 245.195 28.47C279.246 28.47 306.851 56.072 306.851 90.126Z" fill="#3151CF"/>
<path d="M245.191 163.586C184.746 163.586 135.571 222.684 133.811 296.386H356.571C354.794 222.675 305.633 163.586 245.191 163.586Z" fill="#3151CF"/>
<path d="M440.661 61.656C440.661 95.707 413.056 123.312 379.005 123.312C344.954 123.312 317.349 95.707 317.349 61.656C317.349 27.601 344.954 0 379.005 0C413.056 0 440.661 27.602 440.661 61.656Z" fill="#3151CF"/>
<path d="M379.001 135.126C350.649 135.126 324.794 148.122 305.13 169.521C336.446 189.603 360.087 225.162 369.411 267.935H490.381C488.612 194.228 439.443 135.125 379.001 135.125V135.126Z" fill="#3151CF"/>
<path d="M173.041 61.656C173.041 95.707 145.439 123.312 111.389 123.312C77.334 123.312 49.733 95.707 49.733 61.656C49.733 27.601 77.335 0 111.389 0C145.44 0 173.041 27.602 173.041 61.656Z" fill="#3151CF"/>
<path d="M185.251 169.516C165.591 148.118 139.724 135.121 111.38 135.121C50.935 135.121 1.76 194.223 0 267.931H120.97C130.283 225.154 153.943 189.599 185.251 169.517V169.516Z" fill="#3151CF"/>
</svg>
