<svg width="378" height="466" viewBox="0 0 378 466" fill="none" xmlns="http://www.w3.org/2000/svg">
<path d="M372.963 65.9389L192.083 0.418943C190.403 -0.139647 188.161 -0.139647 186.482 0.418943L5.60161 65.9389C2.24221 67.06 0 70.4194 0 73.7787V221.619C0 311.779 49.84 394.099 129.92 436.099L184.799 464.658C185.92 465.216 187.6 465.779 188.721 465.779C189.842 465.779 191.522 465.22 192.643 464.658L247.522 436.099C327.6 394.099 377.442 312.339 377.442 221.619L377.438 73.7787C377.997 70.4193 375.758 67.056 372.957 65.9389H372.963ZM361.205 222.179C361.205 306.179 314.725 382.899 240.245 421.539L189.284 447.859L138.323 420.98C63.8432 382.339 17.3632 305.62 17.3632 221.62V79.9399L189.283 17.2169L361.203 79.9359L361.205 222.179Z" fill="#FFD012"/>
<path d="M42.5632 97.2989V221.619C42.5632 296.099 84.0042 364.419 150.083 398.579L189.845 419.298L229.607 398.579C295.685 363.86 337.127 296.099 337.127 221.619L337.123 97.2989L189.283 44.0999L42.5632 97.2989ZM287.283 148.819C290.643 152.178 290.643 157.217 287.842 160.581L184.242 271.461C182.562 273.141 180.32 274.262 178.082 274.262C175.843 274.262 174.16 273.703 172.48 272.023L103.601 208.742C100.242 205.383 99.6791 200.344 103.042 196.98C106.402 193.621 111.441 193.058 114.804 196.422L177.523 254.102L275.523 149.382C278.883 146.018 283.922 145.46 287.281 148.819L287.283 148.819Z" fill="#FFD012"/>
</svg>
