<svg width="353" height="335" viewBox="0 0 353 335" fill="none" xmlns="http://www.w3.org/2000/svg">
<path d="M351.341 124.25C347.841 113.75 337.341 106.75 326.841 106.75H237.591C234.091 106.75 230.591 105 228.841 101.5L200.841 17.5C197.341 7 186.841 0 176.341 0C165.841 0 155.341 7 151.841 17.5L123.841 99.75C122.091 103.25 118.591 105 115.091 105H25.8412C13.5912 105 4.84121 112 1.34121 122.5C-2.15879 133 1.34121 145.25 10.0912 152.25L81.8412 204.75C85.3412 206.5 85.3412 211.75 85.3412 215.25L57.3412 299.25C53.8412 309.75 57.3412 322 66.0912 329C74.8412 336 87.0912 336 97.5912 329L169.341 276.5C172.841 274.75 176.341 274.75 179.841 276.5L251.591 329C256.841 332.5 262.091 334.25 267.341 334.25C272.591 334.25 277.841 332.5 283.091 329C291.841 322 295.341 311.5 291.841 299.25L263.841 215.25C262.091 211.75 263.841 208.25 267.341 204.75L339.091 152.25C351.341 147 354.841 134.75 351.341 124.25Z" fill="#FFD012"/>
</svg>
